<svg width="39.000000" height="36.000000" viewBox="0 0 39 36" fill="none" xmlns="http://www.w3.org/2000/svg" xmlns:xlink="http://www.w3.org/1999/xlink">
	<desc>
			Created with Pixso.
	</desc>
	<defs/>
	<path id="path0" d="M0 35.44L2.45 35.43L4.9 35.42L6.16 34.03C6.85 33.27 7.5 32.56 7.6 32.45C7.85 32.18 9.98 29.83 10.3 29.47C10.67 29.05 17.17 21.88 17.28 21.78C17.33 21.73 17.75 21.26 18.21 20.74C18.68 20.22 19.09 19.8 19.11 19.8C19.14 19.8 19.55 20.22 20.01 20.74C20.48 21.26 20.9 21.73 20.95 21.78C21.06 21.89 27.55 29.05 27.93 29.47C28.25 29.83 30.38 32.18 30.63 32.45C30.73 32.56 31.38 33.27 32.07 34.03L33.33 35.42L35.78 35.43L38.23 35.44L38.23 17.34L38.23 -0.76L35.78 -0.75L33.33 -0.74L32.99 -0.37C32.8 -0.16 32.43 0.25 32.15 0.55C31.88 0.85 31.39 1.4 31.05 1.77C30.71 2.14 30.16 2.75 29.82 3.13C28.36 4.74 27.94 5.2 27.22 5.99C26.8 6.45 26.35 6.94 26.23 7.08C26.11 7.22 25.77 7.59 25.49 7.9C24.92 8.53 23.89 9.66 23.46 10.14C23.3 10.32 23.03 10.61 22.85 10.81C22.52 11.17 21.18 12.65 20.79 13.09C20.66 13.23 20.35 13.57 20.1 13.85C19.84 14.13 19.53 14.48 19.4 14.62C19.26 14.78 19.19 14.86 19.12 14.86C19.04 14.86 18.97 14.78 18.83 14.62C18.7 14.48 18.39 14.13 18.13 13.85C17.88 13.57 17.57 13.23 17.44 13.09C17.05 12.65 15.71 11.17 15.38 10.81C15.2 10.61 14.93 10.32 14.77 10.14C14.34 9.66 13.31 8.53 12.74 7.9C12.45 7.59 12.12 7.22 12 7.08C11.88 6.94 11.43 6.45 11.01 5.99C10.59 5.53 9.98 4.85 9.65 4.49C9.32 4.13 8.77 3.52 8.43 3.14C8.09 2.77 7.53 2.15 7.19 1.78C6.85 1.4 6.35 0.85 6.07 0.55C5.8 0.25 5.43 -0.16 5.24 -0.37L4.9 -0.74L2.45 -0.75L0 -0.76L0 17.34L0 35.44ZM8.6 8.15C8.76 8.32 10.68 10.44 12.86 12.85C15.05 15.27 16.86 17.27 16.87 17.3C16.9 17.37 16.74 17.56 15.84 18.55C15.55 18.86 15.05 19.42 14.71 19.79C14.38 20.16 13.83 20.76 13.49 21.13C12.64 22.07 11.4 23.43 11.13 23.74C11.01 23.88 10.68 24.24 10.39 24.56C9.87 25.13 9.18 25.89 8.03 27.16C7.27 27.99 7.06 28.23 6.57 28.77C5.81 29.6 4.67 30.86 4.41 31.16C4.08 31.53 3.84 31.77 3.8 31.77C3.78 31.77 3.77 25.28 3.77 17.34C3.77 9.4 3.79 2.91 3.82 2.91C3.84 2.91 4.86 4.02 6.09 5.37C7.31 6.72 8.45 7.97 8.6 8.15ZM34.43 31.77C34.39 31.77 34.15 31.53 33.82 31.16C33.59 30.89 33.12 30.38 31.66 28.77C31.02 28.06 30.84 27.87 30.2 27.16C29.85 26.78 29.3 26.16 28.96 25.79C27.96 24.69 27.34 24.01 27.1 23.74C26.81 23.42 25.55 22.03 24.75 21.14C24.42 20.78 23.87 20.17 23.53 19.8C23.18 19.42 22.67 18.86 22.39 18.55C21.49 17.56 21.33 17.37 21.36 17.3C21.37 17.27 23.18 15.27 25.36 12.85C27.55 10.44 29.47 8.32 29.63 8.15C31.22 6.36 34.38 2.91 34.41 2.91C34.44 2.91 34.46 9.4 34.46 17.34C34.46 25.28 34.45 31.77 34.43 31.77Z" fill="#FF4D4D" fill-opacity="1.000000" fill-rule="nonzero"/>
	<path id="path1" d="M38.19 -0.76L38.19 35.42L33.29 35.42L16.83 17.33L19.36 14.6L33.29 -0.76L38.19 -0.76ZM34.42 2.89L21.32 17.32L34.42 31.75L34.42 2.89Z" fill="#FFC5BB" fill-opacity="1.000000" fill-rule="nonzero"/>
</svg>
