<svg width="24.000000" height="24.000000" viewBox="0 0 24 24" fill="none" xmlns="http://www.w3.org/2000/svg" xmlns:xlink="http://www.w3.org/1999/xlink">
	<desc>
			Created with Pixso.
	</desc>
	<defs/>
	<path id="Vector" d="M2.02 22.73L2 22.75C1.58 22.75 1.25 22.41 1.25 22C1.25 21.58 1.58 21.25 2 21.25L2.02 21.27L2.02 22.73ZM21.98 21.27L22 21.25C22.41 21.25 22.75 21.58 22.75 22C22.75 22.41 22.41 22.75 22 22.75L21.98 22.73L21.98 21.27Z" fill="#263141" fill-opacity="1.000000" fill-rule="nonzero"/>
	<path id="Vector" d="M2 22L22 " stroke="#263141" stroke-opacity="1.000000" stroke-width="1.500000" stroke-linejoin="round" stroke-linecap="round"/>
	<path id="Vector" d="M9.75 22L14.25 22L14.25 4C14.25 2.89 13.79 2 12.45 2L11.54 2C10.2 2 9.75 2.89 9.75 4L9.75 22Z" stroke="#263141" stroke-opacity="1.000000" stroke-width="1.500000" stroke-linejoin="round"/>
	<path id="Vector" d="M3 22L7 22L7 10C7 8.89 6.6 8 5.39 8L4.6 8C3.39 8 3 8.89 3 10L3 22Z" stroke="#263141" stroke-opacity="1.000000" stroke-width="1.500000" stroke-linejoin="round"/>
	<path id="Vector" d="M17 22L21 22L21 15C21 13.89 20.6 13 19.39 13L18.6 13C17.39 13 17 13.89 17 15L17 22Z" stroke="#263141" stroke-opacity="1.000000" stroke-width="1.500000" stroke-linejoin="round"/>
	<g opacity="0.000000"/>
</svg>
