<svg width="21.000000" height="19.000000" viewBox="0 0 21 19" fill="none" xmlns="http://www.w3.org/2000/svg" xmlns:xlink="http://www.w3.org/1999/xlink">
	<desc>
			Created with Pixso.
	</desc>
	<defs/>
	<path id="Vector" d="M10 18.65C9.68 18.65 9.39 18.61 9.14 18.52C5.31 17.21 -0.75 12.56 -0.75 5.69C-0.75 2.19 2.08 -0.65 5.56 -0.65C7.25 -0.65 8.83 0.01 10 1.19C11.16 0.01 12.75 -0.65 14.43 -0.65C17.91 -0.65 20.75 2.2 20.75 5.69C20.75 12.57 14.68 17.21 10.85 18.52C10.6 18.61 10.31 18.65 10 18.65ZM5.56 0.85C2.91 0.85 0.75 3.02 0.75 5.69C0.75 12.52 7.31 16.32 9.62 17.11C9.81 17.17 10.2 17.17 10.37 17.11C12.68 16.32 19.25 12.53 19.25 5.69C19.25 3.02 17.1 0.85 14.45 0.85C12.93 0.85 11.52 1.56 10.6 2.79C10.33 3.17 9.68 3.17 9.41 2.79C8.47 1.55 7.08 0.85 5.56 0.85Z" fill="#263141" fill-opacity="1.000000" fill-rule="nonzero"/>
</svg>
