<svg width="19.000000" height="19.000000" viewBox="0 0 24 24" fill="none" xmlns="http://www.w3.org/2000/svg" xmlns:xlink="http://www.w3.org/1999/xlink">
	<desc>
			Created with Pixso.
	</desc>
	<defs/>
	<path id="Icon" d="M12.86 2.99C12.47 2.33 11.52 2.33 11.13 2.99L8.42 7.67C8.23 8 7.9 8.22 7.52 8.28L2.44 9.05C1.58 9.17 1.28 10.25 1.95 10.8L5.74 13.94C6.09 14.23 6.25 14.69 6.17 15.14L5.18 20.35C5.02 21.17 5.88 21.81 6.62 21.42L11.41 18.89C11.78 18.7 12.21 18.7 12.58 18.89L17.37 21.42C18.11 21.81 18.97 21.17 18.82 20.35L17.82 15.14C17.74 14.69 17.9 14.23 18.25 13.94L22.04 10.8C22.71 10.25 22.41 9.17 21.56 9.05L16.47 8.28C16.09 8.22 15.76 8 15.57 7.67L12.86 2.99Z" fill="#FF4D4D" fill-opacity="1.000000" fill-rule="nonzero"/>
</svg>
