<svg width="24.000000" height="24.000000" viewBox="0 0 24 24" fill="none" xmlns="http://www.w3.org/2000/svg" xmlns:xlink="http://www.w3.org/1999/xlink">
	<desc>
			Created with Pixso.
	</desc>
	<defs/>
	<path id="Vector" d="M12.15 11.62C12.12 11.62 12.1 11.62 12.07 11.62C12.02 11.61 11.95 11.61 11.89 11.62C8.99 11.53 6.8 9.25 6.8 6.43C6.8 3.58 9.13 1.25 11.99 1.25C14.85 1.25 17.18 3.58 17.18 6.43C17.17 9.25 14.97 11.53 12.18 11.62C12.17 11.62 12.16 11.62 12.15 11.62ZM11.99 2.75C9.96 2.75 8.3 4.4 8.3 6.43C8.3 8.43 9.86 10.05 11.85 10.12C11.9 10.11 12.04 10.11 12.17 10.12C14.13 10.03 15.67 8.41 15.68 6.43C15.68 4.4 14.02 2.75 11.99 2.75Z" fill="#263141" fill-opacity="1.000000" fill-rule="nonzero"/>
	<g opacity="0.000000"/>
	<path id="Vector" d="M12.16 22.55C10.2 22.55 8.23 22.05 6.74 21.05C5.35 20.12 4.59 18.87 4.59 17.5C4.59 16.12 5.35 14.86 6.74 13.92C9.74 11.93 14.6 11.93 17.58 13.92C18.96 14.85 19.73 16.11 19.73 17.48C19.73 18.85 18.97 20.12 17.58 21.05C16.08 22.05 14.12 22.55 12.16 22.55ZM7.57 15.18C6.61 15.83 6.09 16.64 6.09 17.51C6.09 18.36 6.62 19.17 7.57 19.81C10.06 21.48 14.26 21.48 16.75 19.81C17.71 19.16 18.23 18.35 18.23 17.49C18.23 16.63 17.7 15.82 16.75 15.18C14.26 13.53 10.06 13.53 7.57 15.18Z" fill="#263141" fill-opacity="1.000000" fill-rule="nonzero"/>
</svg>
